<?xml version="1.0" encoding="UTF-8" standalone="no"?>
<!DOCTYPE svg PUBLIC "-//W3C//DTD SVG 1.1//EN" "http://www.w3.org/Graphics/SVG/1.1/DTD/svg11.dtd">
<svg width="100%" height="100%" viewBox="0 0 120 127" version="1.1" xmlns="http://www.w3.org/2000/svg" xmlns:xlink="http://www.w3.org/1999/xlink" xml:space="preserve" style="fill-rule:evenodd;clip-rule:evenodd;stroke-linejoin:round;stroke-miterlimit:1.41421;">
    <g id="Forma-1" transform="matrix(-1,1.22465e-16,-1.22465e-16,-1,121,127)">
        <path d="M117.45,56.168L64.411,3.128C62.347,1.064 59.876,0.033 56.997,0.033C54.171,0.033 51.728,1.064 49.664,3.128L43.554,9.239C41.49,11.194 40.458,13.639 40.458,16.572C40.458,19.504 41.49,21.949 43.554,23.905L67.425,47.857L10.067,47.857C7.244,47.857 4.949,48.875 3.184,50.913C1.418,52.95 0.536,55.408 0.536,58.286L0.536,68.714C0.536,71.593 1.418,74.05 3.184,76.087C4.949,78.125 7.244,79.142 10.067,79.142L67.424,79.142L43.553,103.015C41.488,105.078 40.457,107.549 40.457,110.429C40.457,113.308 41.488,115.779 43.553,117.842L49.663,123.953C51.782,125.962 54.226,126.967 56.996,126.967C59.82,126.967 62.293,125.962 64.41,123.953L117.449,70.914C119.459,68.904 120.464,66.433 120.464,63.5C120.464,60.513 119.459,58.067 117.45,56.168Z" style="fill:rgb(3,155,229);fill-rule:nonzero;"/>
    </g>
</svg>
