<?xml version="1.0" encoding="UTF-8" standalone="no"?>
<!DOCTYPE svg PUBLIC "-//W3C//DTD SVG 1.1//EN" "http://www.w3.org/Graphics/SVG/1.1/DTD/svg11.dtd">
<svg width="100%" height="100%" viewBox="0 0 331 426" version="1.1" xmlns="http://www.w3.org/2000/svg" xmlns:xlink="http://www.w3.org/1999/xlink" xml:space="preserve" style="fill-rule:evenodd;clip-rule:evenodd;stroke-linecap:round;stroke-linejoin:round;stroke-miterlimit:1.5;">
    <g transform="matrix(1.02033,0,0,1.0029,-1.72852,-0.0129445)">
        <path d="M168.871,143.348L168.871,88.547L126.027,87.614L125.558,63.937L104.753,63.084L104.753,31.648L97.307,31.761L97.307,4.456L77.725,4.456L77.873,31.853L70.207,32.056L70.06,63.727L49.684,63.704L49.42,87.794L6.104,88.146L6.104,421.137L95.078,420.655L168.871,143.348Z" style="fill:none;stroke:white;stroke-width:4.12px;"/>
    </g>
    <g transform="matrix(1,0,0,1,-793.007,-398.023)">
        <rect x="799.111" y="486.353" width="162.767" height="332.324" style="stroke:black;stroke-width:1px;"/>
        <g transform="matrix(1,0,0,1,-237.995,-13.3605)">
            <rect x="1069.48" y="539.991" width="98.014" height="36.385" style="fill:white;"/>
        </g>
        <g transform="matrix(1,0,0,1,-241.079,-101.684)">
            <rect x="1111.75" y="504.163" width="19.64" height="83.874"/>
        </g>
        <g transform="matrix(1,0,0,1,119.409,17.2392)">
            <rect x="723.06" y="444.416" width="76.051" height="24.698"/>
        </g>
        <g transform="matrix(1,0,0,0.903305,182.048,80.7929)">
            <rect x="680.915" y="386.465" width="35.064" height="35.168"/>
        </g>
    </g>
    <g transform="matrix(1,0,0,1,-793.007,-398.023)">
        <g transform="matrix(1.26905,0,0,1.15407,234.898,-84.7028)">
            <rect x="568.306" y="542.494" width="127.263" height="244.222" style="stroke:white;stroke-width:3.44px;"/>
        </g>
        <g transform="matrix(1,0,0,1,-25.4666,-10.8721)">
            <rect x="998.282" y="570.725" width="28.562" height="28.562" style="fill:white;stroke:black;stroke-width:4.17px;"/>
        </g>
        <g transform="matrix(1,0,0,1,24.5508,-10.8721)">
            <rect x="998.282" y="570.725" width="28.562" height="28.562" style="fill:white;stroke:black;stroke-width:4.17px;"/>
        </g>
        <g transform="matrix(1,0,0,1,74.062,-10.8721)">
            <rect x="998.282" y="570.725" width="28.562" height="28.562" style="fill:white;stroke:black;stroke-width:4.17px;"/>
        </g>
        <g transform="matrix(1,0,0,1,-24.9604,30.2667)">
            <rect x="998.282" y="570.725" width="28.562" height="28.562" style="fill:white;stroke:black;stroke-width:4.17px;"/>
        </g>
        <g transform="matrix(1,0,0,1,25.057,30.2667)">
            <rect x="998.282" y="570.725" width="28.562" height="28.562" style="fill:white;stroke:black;stroke-width:4.17px;"/>
        </g>
        <g transform="matrix(1,0,0,1,74.5682,30.2667)">
            <rect x="998.282" y="570.725" width="28.562" height="28.562" style="fill:white;stroke:black;stroke-width:4.17px;"/>
        </g>
        <g transform="matrix(1,0,0,1,-25.2135,72.8057)">
            <rect x="998.282" y="570.725" width="28.562" height="28.562" style="fill:white;stroke:black;stroke-width:4.17px;"/>
        </g>
        <g transform="matrix(1,0,0,1,24.8039,72.8057)">
            <rect x="998.282" y="570.725" width="28.562" height="28.562" style="fill:white;stroke:black;stroke-width:4.17px;"/>
        </g>
        <g transform="matrix(1,0,0,1,74.3151,72.8057)">
            <rect x="998.282" y="570.725" width="28.562" height="28.562" style="fill:white;stroke:black;stroke-width:4.17px;"/>
        </g>
    </g>
    <g transform="matrix(1,0,0,0.952856,-766.479,-357.734)">
        <g transform="matrix(1,0,0,0.853121,-63.8518,120.246)">
            <rect x="961.878" y="661.298" width="193.057" height="157.38" style="stroke:white;stroke-width:4.57px;"/>
        </g>
        <g transform="matrix(1.99024,0,0,1.23175,-986.344,-191.551)">
            <rect x="961.878" y="751.545" width="66.86" height="67.132" style="stroke:white;stroke-width:2.55px;"/>
        </g>
        <g transform="matrix(1.06898,0,0,1.1824,-129.164,31.814)">
            <rect x="1011.33" y="618.542" width="79.755" height="46.941" style="fill:white;stroke:white;stroke-width:3.79px;"/>
        </g>
        <g transform="matrix(0.25,0,0,0.638832,835.139,306.864)">
            <rect x="637.666" y="692.436" width="11.705" height="100.149" style="stroke:black;stroke-width:8.95px;"/>
        </g>
    </g>
    <g transform="matrix(0.805064,0,0,0.805064,-178.101,156.936)">
        <text x="193.836px" y="328.141px" style="font-family:'ArialMT', 'Arial', sans-serif;font-size:400px;fill:rgb(3,155,229);">P</text>
    </g>
</svg>
